<?xml version="1.0" encoding="UTF-8"?>
<svg id="Layer_1" data-name="Layer 1" xmlns="http://www.w3.org/2000/svg" viewBox="0 0 50 50">
  <defs>
    <style>
      .cls-1 {
        stroke-width: 0px;
      }
    </style>
  </defs>
  <path class="cls-1" d="m31.99,9.57c-.39.11-.7.33-.98.62-4.49,4.49-8.98,8.98-13.47,13.47-.87.87-.87,1.86,0,2.73,4.5,4.5,8.99,9,13.49,13.49.86.86,1.84.86,2.7,0,.26-.26.51-.51.77-.77.84-.84.84-1.84,0-2.68-2.37-2.38-4.75-4.75-7.13-7.13-1.34-1.34-2.67-2.68-4.02-4.01-.22-.22-.21-.33,0-.55,3.69-3.68,7.38-7.37,11.07-11.05.47-.47.76-.98.67-1.66-.05-.35-.19-.66-.43-.91-.37-.39-.75-.76-1.13-1.13-.21-.21-.48-.32-.76-.42h-.79Z"/>
</svg>