<?xml version="1.0" encoding="UTF-8"?>
<svg id="Layer_1" data-name="Layer 1" xmlns="http://www.w3.org/2000/svg" viewBox="0 0 839.8 64.57">
  <defs>
    <style>
      .cls-1 {
        fill: #fff;
        stroke-width: 0px;
      }
    </style>
  </defs>
  <path class="cls-1" d="m839.79,0c.04,4.36,0,8.53,0,12.91.08,2.17-.65,3.02-2.77,3.09-3.96.13-7.91.27-11.87.53-26,1.69-51.18,7.07-75.54,16.28-17.09,6.47-33.78,14-51.25,19.47-14.74,4.61-29.77,7.83-45.12,9.75-17.87,2.23-35.81,2.82-53.78,2.39-27.77-.68-55.05-4.39-81.48-13.34-13.74-4.65-27.08-10.28-40.56-15.58-16.57-6.52-33.48-11.94-51.06-15.06-10.28-1.82-20.64-3.1-31.07-3.89-12.55-.95-25.11-1.15-37.67-.87-12.97.29-25.89,1.36-38.77,3.11-26.57,3.6-51.46,12.59-76.04,22.74-15.11,6.24-30.47,11.81-46.43,15.56-16.7,3.93-33.64,5.94-50.75,6.94-11.22.65-22.44.67-33.65.33-30.52-.93-60.33-5.79-88.95-16.87-6.91-2.68-13.8-5.4-20.7-8.12Q.02,38.14.02,36.83c.04-12.33-.05-24.5,0-36.83,279.85,0,559.92,0,839.77,0Z"/>
  <polyline class="cls-1" points="839.79 12.92 839.79 15.93 834.63 16.09"/>
</svg>